<svg xmlns="http://www.w3.org/2000/svg" width="695" height="448" viewBox="268.68988037109375 598.2611694335938 695 448">
  <polygon points="318.1455993652344,808.464111328125 308.68988037109375,961.3316040039062 365.4241943359375,962.9075927734375 392.2154235839844,1005.4583129882812 436.34210205078125,1005.4583129882812 469.4371337890625,953.4518432617188 765.7163696289062,950.2999267578125 805.115234375,994.4266357421875 846.0900268554688,994.4266357421875 880.760986328125,955.02783203125 923.311767578125,951.8759155273438 910.7041015625,797.4324340820312 800.3873901367188,795.8565063476562 713.7098999023438,639.8370971679688 467.8611755371094,638.2611694335938 428.46234130859375,808.464111328125" fill="#757575" opacity="1" stroke="none"/>
  <polygon points="337.0570373535156,839.9832153320312 329.1772766113281,925.084716796875 365.4241943359375,929.8125610351562 381.1837463378906,901.4453735351562 430.0382995605469,896.717529296875 452.1016540527344,934.5404052734375 765.7163696289062,926.66064453125 781.4759521484375,888.8377685546875 842.9381103515625,888.8377685546875 871.3052978515625,939.2682495117188 896.5205078125,931.3884887695312 887.0648193359375,825.7996215820312 792.507568359375,816.3439331054688 699.5263671875,665.0523681640625 497.8042907714844,663.4764404296875 455.2535400390625,821.07177734375" fill="#FFFFFF" opacity="0.7" stroke="none"/>
</svg>